# xmcd
#
# Track frame offsets:
#	150
#	7159
#	38400
#	63204
#	85077
#	114855
#	146063
#	166422
#	197282
#	213198
#
# Disc length: 3224 seconds
#
# Revision: 1
# Processed by: cddbd v1.5PL3 Copyright (c) Steve Scherf et al.
# Submitted via: EasyCDDAExtractor 6.5.9.5
#
DISCID=760c960a
DTITLE=Mason Hamblin - The Ballroom Is For Dances
DYEAR=1900
DGENRE=Acid Punk
TTITLE0=Introduction
TTITLE1=Summertime
TTITLE2=Yesterday Blues
TTITLE3=The Ballroom is for Dances
TTITLE4=Time
TTITLE5=Rain
TTITLE6=Melancholia
TTITLE7=Steeped in Pity
TTITLE8=Wrecked and Ruined
TTITLE9=Paintings on the Wall
EXTD=
EXTT0=
EXTT1=
EXTT2=
EXTT3=
EXTT4=
EXTT5=
EXTT6=
EXTT7=
EXTT8=
EXTT9=
PLAYORDER=
